<?xml version="1.0" encoding="UTF-8" standalone="no"?>
<!-- Created with Inkscape (http://www.inkscape.org/) -->

<svg
   width="210mm"
   height="297mm"
   viewBox="0 0 210 297"
   version="1.1"
   id="svg5"
   sodipodi:docname="tony_omen.svg"
   inkscape:version="1.1 (c68e22c387, 2021-05-23)"
   xmlns:inkscape="http://www.inkscape.org/namespaces/inkscape"
   xmlns:sodipodi="http://sodipodi.sourceforge.net/DTD/sodipodi-0.dtd"
   xmlns="http://www.w3.org/2000/svg"
   xmlns:svg="http://www.w3.org/2000/svg">
  <sodipodi:namedview
     id="namedview7"
     pagecolor="#ffffff"
     bordercolor="#666666"
     borderopacity="1.0"
     inkscape:pageshadow="2"
     inkscape:pageopacity="0.0"
     inkscape:pagecheckerboard="0"
     inkscape:document-units="mm"
     showgrid="false"
     showguides="false"
     inkscape:zoom="0.67081229"
     inkscape:cx="399.51564"
     inkscape:cy="577.65787"
     inkscape:current-layer="layer5"
     inkscape:snap-global="true"
     inkscape:object-paths="false"
     inkscape:snap-smooth-nodes="false"
     inkscape:object-nodes="true" />
  <defs
     id="defs2" />
  <g
     inkscape:groupmode="layer"
     id="layer3"
     inkscape:label="足"
     style="display:inline">
    <path
       style="display:inline;fill:#7a243a;fill-opacity:1;stroke:#000001;stroke-width:0;stroke-linecap:round;stroke-linejoin:round;stroke-miterlimit:4;stroke-dasharray:none;paint-order:markers stroke fill"
       d="m 273.5855,937.4778 c -9.34154,-0.87065 -21.78094,-5.69104 -30.05123,-10.82895 -6.78376,-4.21439 -15.55931,-11.20977 -21.15816,-17.98274 -1.08074,-1.30738 -4.39813,-5.53767 -6.17811,-9.11969 -9.96322,-20.04996 -15.32687,-46.42308 -14.00865,-69.14148 0.47417,-8.17197 1.64362,-18.52139 2.19685,-19.08992 0.45862,-0.47129 154.01478,45.79593 154.29591,46.49089 0.15069,0.37248 -1.04075,5.16295 -2.16083,8.76146 -5.95695,19.1381 -15.25274,34.86706 -27.54547,47.37449 -9.56161,9.72861 -20.57408,16.6045 -32.44704,20.58755 -8.38173,2.81183 -14.89431,3.69856 -22.94327,2.94839 z"
       id="path3976"
       transform="scale(0.26458333)"
       sodipodi:nodetypes="sssssssssss"
       inkscape:label="leg_r" />
    <path
       style="fill:#7a243a;fill-opacity:1;stroke:#000001;stroke-width:0;stroke-linecap:round;stroke-linejoin:round;stroke-miterlimit:4;stroke-dasharray:none;paint-order:markers stroke fill"
       d="m 540.93714,938.00981 c -4.27363,-0.32958 -10.92074,-1.58277 -15.83369,-3.08224 -30.25156,-9.23303 -52.47361,-35.15822 -62.91765,-74.2329 -1.00368,-3.75509 -1.96753,-7.9286 -1.77442,-8.11266 0.1931,-0.18406 3.15596,-1.42401 5.60881,-2.25722 9.28045,-3.15249 42.4084,-14.46453 54.99979,-19.29007 37.09135,-14.21491 64.64318,-27.77943 72.70934,-34.08173 1.53568,-1.19988 3.53562,-2.50252 3.65448,-2.38685 0.91582,0.89118 3.58994,26.9835 4.18461,42.87966 1.58883,42.47142 -4.68258,64.56117 -22.74536,83.19863 -6.2268,6.42491 -11.6817,10.32626 -18.32115,13.5326 -8.29203,4.00439 -11.96111,4.41918 -19.56476,3.83278 z"
       id="path4015"
       transform="scale(0.26458333)"
       sodipodi:nodetypes="ssssssssssss"
       inkscape:label="leg_l" />
    <path
       style="display:inline;fill:#974b60;fill-opacity:1;stroke:#000001;stroke-width:0;stroke-linecap:round;stroke-linejoin:round;stroke-miterlimit:4;stroke-dasharray:none;paint-order:markers stroke fill"
       d="m 247.04133,908.03782 c -8.76504,-1.9588 -15.96301,-7.30939 -21.15689,-17.85697 -2.99194,-6.07595 -6.34628,-15.43544 -7.91043,-25.48776 -0.61478,-3.951 -1.16091,-7.56894 -1.2874,-17.77583 0.36815,-4.95781 -0.32819,-11.17591 0.75419,-16.0606 l 4.29954,4.27939 c 2.3739,3.12753 41.82816,40.96707 42.87978,62.04666 0.0519,2.60967 -0.47404,4.84849 -2.70265,7.48769 -3.65573,4.45644 -8.60958,4.55449 -14.87614,3.36742 z"
       id="path140500"
       transform="scale(0.26458333)"
       sodipodi:nodetypes="csscccccc"
       inkscape:label="leg_r_highlight" />
  </g>
  <g
     inkscape:groupmode="layer"
     id="layer2"
     inkscape:label="体"
     style="display:inline">
    <ellipse
       style="display:inline;fill:#00ff0a;fill-opacity:0;stroke:#000001;stroke-width:0;stroke-linecap:round;stroke-linejoin:round;stroke-miterlimit:4;stroke-dasharray:none;stroke-opacity:1;paint-order:markers stroke fill"
       id="path3560"
       ry="18.589071"
       rx="7.0869842"
       cy="129.99393"
       cx="142.90143"
       inkscape:label="eye_l_base_path" />
    <ellipse
       style="display:inline;fill:#00ff0a;fill-opacity:0;stroke:#000001;stroke-width:0;stroke-linecap:round;stroke-linejoin:round;stroke-miterlimit:4;stroke-dasharray:none;stroke-opacity:1;paint-order:markers stroke fill"
       id="path4491"
       ry="15.119912"
       rx="9.7287321"
       cy="127.15419"
       cx="62.229103"
       inkscape:label="eye_r_base_path" />
    <ellipse
       style="fill:#00ff0a;fill-opacity:0;stroke:#000001;stroke-width:0;stroke-linecap:round;stroke-linejoin:round;stroke-miterlimit:4;stroke-dasharray:none;stroke-opacity:1;paint-order:markers stroke fill"
       id="path4617"
       cx="147.41985"
       cy="119.8458"
       rx="2.57113"
       ry="4.4833856"
       inkscape:label="eye_l_highlight_path" />
    <path
       style="fill:#ff691a;fill-opacity:1;stroke:#000001;stroke-width:0;stroke-linecap:round;stroke-linejoin:round;stroke-miterlimit:4;stroke-dasharray:none;stroke-opacity:1;paint-order:markers stroke fill"
       d="m 44.254943,376.59819 c 0.489869,-1.37916 6.225005,-15.52284 11.23704,-25.86112 28.652565,-59.10145 85.596707,-114.82341 151.817847,-150.3431 6.06002,-3.25048 11.53184,-6.21297 12.1596,-6.58331 2.58604,-1.52564 -3.20421,-2.43639 -18.52742,-2.9142 -8.52108,-0.26571 -19.26786,-0.23672 -23.59964,-0.40857 l -10.8768,-0.0858 9.12646,-5.20529 c 16.63899,-9.49006 38.7759,-19.9897 59.91958,-23.93872 23.39693,-4.36986 41.8311,-7.19243 72.54807,-6.35553 21.94495,0.5979 36.81156,2.01109 46.62636,4.25896 3.43906,0.78764 3.51564,0.39604 -0.71754,-3.94079 -10.96839,-11.23694 -42.09533,-19.8394 -86.90425,-25.13666 -6.28828,-0.74339 -20.4211,-1.91141 -20.59584,-2.09521 -0.3459,-0.36382 29.80112,-4.92247 44.20859,-6.04274 12.20026,-0.94865 53.74358,0.68692 65.51691,2.21707 24.57636,3.19414 44.37999,7.36727 63.52025,14.18619 37.26482,13.27599 65.95632,35.19 82.55104,64.47339 1.6442,2.9014 4.52956,7.86928 4.51965,8.26174 -0.023,0.90942 -6.23999,11.12868 -14.18687,19.61798 -24.49068,26.16229 -54.47539,48.2772 -74.41578,57.67974 -7.44259,3.50942 -15.70466,5.2606 -3.96426,-6.21313 11.47215,-15.87238 38.1487,-36.36226 40.16768,-54.31083 l -24.70215,-0.242 c -25.55249,-0.25033 -43.18732,2.66278 -67.32559,5.48111 -55.20335,6.44548 -100.70391,20.78321 -142.49147,44.19711 -10.40718,5.83122 -21.31305,9.25773 -21.25212,8.39885 0.29042,-4.0942 18.01443,-21.30714 30.50517,-31.49575 13.27064,-10.82477 35.57949,-26.2355 40.15237,-29.09837 6.71449,-4.20362 -1.44522,-1.42763 -17.7647,2.79853 -19.01688,4.92475 -29.96639,10.60569 -49.66036,19.83898 -59.28829,27.79664 -106.267355,69.36596 -147.383667,120.38936 -8.229597,10.21254 -13.67091,18.22103 -13.236205,16.99718 z"
       id="path7338"
       transform="scale(0.26458333)"
       sodipodi:nodetypes="sssssscssssssssssssssccsssssssssss"
       inkscape:label="hair_top" />
    <path
       style="fill:#d9003f;fill-opacity:1;stroke:#000001;stroke-width:0;stroke-linecap:round;stroke-linejoin:round;stroke-miterlimit:4;stroke-dasharray:none;paint-order:markers stroke fill"
       d="m 475.50827,871.59339 c 2.42122,-1.69402 2.70424,-2.03807 4.93939,-3.57747 5.83363,-4.01778 13.54444,-11.89327 15.6672,-16.49158 0.9919,-2.14867 2.25,-4.57716 2.04901,-4.77814 -0.20098,-0.20098 -3.43909,1.25868 -7.57849,2.66632 -10.83568,3.68478 -19.45035,6.54365 -30.92363,8.62908 -17.73229,3.2231 -26.24423,5.02066 -55.18799,3.94059 l -30.66167,-1.14417 -9.46609,-2.45079 c -16.73044,-4.33155 -32.23228,-20.03916 -45.58338,-31.45741 -8.52268,-7.28886 -22.68265,-20.54039 -29.0626,-28.4832 -5.03254,-6.26532 -19.66559,-29.31661 -19.19386,-29.78834 0.13422,-0.13423 10.85887,5.07506 15.12667,7.08248 38.43002,18.07608 99.80734,36.1332 164.56763,44.91483 l 3.72682,0.50536 -8.60842,-8.82876 c -13.76183,-14.11407 -23.66534,-27.24213 -31.19093,-41.34659 -4.05935,-7.60803 -8.58694,-18.76672 -9.41257,-23.1982 l -0.52075,-2.79512 h 3.25174 c 4.87633,0 27.79281,-2.7285 40.8907,-4.86857 20.76473,-3.39275 38.74414,-7.81758 57.3931,-14.12474 30.8178,-10.42274 57.12628,-29.89018 72.56684,-46.56741 2.69437,-2.91018 10.99934,-9.76983 10.99934,-9.38065 0,1.32224 -4.87018,16.54956 -8.5111,23.65582 -6.39006,12.47193 -21.05153,29.63839 -33.25984,44.20458 -6.8996,8.23217 -25.5785,27.34983 -33.13577,33.91411 -4.96487,4.31251 -6.79114,6.70829 -5.11365,6.70829 0.87139,0 18.15837,-13.51306 28.13219,-21.99066 53.06626,-45.10551 89.38993,-93.04533 103.0665,-136.02672 5.0639,-15.91434 14.22673,-55.08261 18.74444,-80.12674 8.30911,-46.06192 10.06718,-80.20345 5.29145,-102.75945 -0.79294,-3.74506 -1.99391,-10.16335 -2.66882,-14.26285 -3.0939,-18.79265 -9.40658,-39.16422 -17.18387,-55.45389 -9.42697,-19.74492 -19.88333,-33.34658 -33.10309,-43.06057 -8.39273,-6.16705 -14.29682,-7.71073 -19.39929,-5.07214 -3.63732,1.88093 -2.70751,6.78121 1.88363,9.92711 7.66769,5.25398 22.58135,23.08855 34.20494,40.90415 8.0142,12.28342 11.28308,20.55481 14.36858,36.35731 2.35427,12.05746 5.47752,35.40483 -1.31717,46.58531 -0.18688,0.3075 -76.68147,-107.73955 -76.68147,-110.40693 9.50806,4.83105 -119.43276,73.73316 -168.43927,57.5668 l -68.95949,2.70829 c 104.53874,-30.0915 214.04623,-54.02468 269.61499,-146.62925 2.17982,-3.68256 7.00383,-9.23726 7.38869,-9.23726 0.38487,0 7.60289,3.25876 11.3016,4.49794 23.1001,7.73924 53.05814,30.48301 89.10922,64.8356 23.44807,22.34334 27.55777,31.90704 32.1949,43.49416 1.66668,4.16465 5.29291,16.14661 6.30652,20.83832 l 0.55672,2.57689 -4.37899,-3.75292 c -6.43992,-5.51918 -11.91976,-9.43056 -17.79556,-12.70204 -6.02442,-3.35422 -16.06548,-7.91393 -16.49083,-7.48858 -0.15936,0.15936 1.8514,5.96161 4.46836,12.8939 12.30501,32.59586 22.7465,69.97075 26.11464,93.47626 1.5091,10.53175 2.25296,23.59328 1.59393,27.98804 l -0.53869,3.59221 -3.60796,-8.72985 c -4.6215,-11.1822 -8.3565,-17.82823 -12.52193,-22.28141 -3.08705,-3.30031 -5.96975,-4.76292 -5.16134,-2.61874 3.53416,9.37378 7.76438,33.10488 9.46672,53.10726 0.98049,11.52077 0.98057,42.88939 1.4e-4,54.41164 -7.46297,87.70638 -44.22563,168.57972 -109.88249,241.72803 -4.08424,4.55026 -7.52526,8.17383 -7.6467,8.05239 -0.12145,-0.12144 1.11935,-3.08064 2.75732,-6.57599 3.94041,-8.40861 7.04793,-18.08174 8.97689,-27.94341 2.3478,-12.003 3.10567,-28.27949 1.22408,-26.28941 -0.18257,0.1931 -2.06793,3.70524 -4.18968,7.80475 -21.86386,42.24397 -68.63117,78.86167 -130.38237,101.24565 -9.07636,3.29007 -14.93941,5.09294 -14.53997,4.82271 z"
       id="path9194"
       transform="scale(0.26458333)"
       sodipodi:nodetypes="csssssscsssssscssscsssssssssssssssssssssccccssssscsssssscsssssssssssssc"
       inkscape:label="hair_l_darkred" />
    <path
       style="fill:#fb0036;fill-opacity:1;stroke:#000001;stroke-width:0;stroke-linecap:round;stroke-linejoin:round;stroke-miterlimit:4;stroke-dasharray:none;paint-order:markers stroke fill"
       d="m 530.11776,753.35164 c 27.23419,-27.93977 50.09633,-55.01625 56.57608,-77.60576 1.86932,-6.51676 1.53237,-7.00186 -1.92893,-2.77702 -6.28956,7.67699 -18.61627,17.16937 -30.60351,23.56673 -23.34675,12.45971 -55.48124,20.49918 -96.41618,24.12161 -5.84271,0.51703 -32.48821,1.19097 -28.19732,0.71318 37.24361,-4.14702 63.14715,-12.83855 91.78208,-28.38911 24.24666,-13.16746 53.08054,-34.49257 61.72796,-47.88559 30.22428,-46.81097 47.57885,-98.08462 53.89156,-143.78954 1.39036,-10.06637 3.12533,-15.43676 3.12719,-26.67131 0.002,-10.27246 -1.60706,-19.52994 -0.14767,-25.50645 2.51033,-10.28017 3.04046,-13.60305 2.72333,-26.13573 -0.37652,-14.87949 -2.04876,-23.29931 -6.80288,-35.96571 -5.27726,-14.06019 -25.2789,-40.3754 -38.30338,-51.29311 -6.41291,-5.3756 -9.51985,-8.91747 -9.51985,-10.87431 0,-2.43567 1.70811,-7.01379 6.67318,-6.9932 3.84284,0.0159 7.11835,-0.53809 10.91145,1.90338 10.25977,6.60381 22.00449,13.58749 29.74999,25.14655 12.73508,19.00532 20.56351,37.61539 25.55328,66.97515 0.86215,5.07288 3.85727,23.35461 4.43318,25.96352 1.7947,8.13006 2.41711,19.78898 2.09922,36.17137 -0.4556,23.47921 -1.37712,43.77766 -8.17531,77.92976 -5.10294,25.63567 -11.61763,57.70902 -15.94316,70.4638 -14.52712,42.83637 -55.42413,93.83998 -108.84368,138.72243 -3.5332,2.96855 -29.66176,20.41298 -29.8673,20.41298 -0.20553,0 21.75677,-24.36272 25.50067,-28.20362 z"
       id="path32324"
       transform="scale(0.26458333)"
       sodipodi:nodetypes="ssssssssscssssssssssssssss"
       inkscape:label="hair_l_red" />
    <path
       style="fill:#fd0532;fill-opacity:1;stroke:#000001;stroke-width:0;stroke-linecap:round;stroke-linejoin:round;stroke-miterlimit:4;stroke-dasharray:none;paint-order:markers stroke fill"
       d="m 365.77453,859.43017 c -0.86963,-0.10768 -5.49452,-0.67239 -10.27752,-1.2549 -24.83825,-3.02497 -56.21684,-9.0713 -79.11366,-15.99272 -3.87949,-1.17272 -8.27047,-2.41339 -8.52175,-2.25809 -0.96375,0.59563 -0.83814,2.40814 0.8659,4.6309 1.77266,2.31227 7.37346,7.22837 13.12787,11.52296 1.67449,1.2497 11.61029,7.53396 11.47467,7.66958 -0.68285,0.68285 -24.5793,-14.69466 -33.49309,-21.82584 -7.60906,-6.08738 -20.55949,-18.82729 -26.7745,-26.33926 -16.78067,-20.28247 -29.14987,-43.79816 -36.35445,-69.11521 -2.51365,-8.83301 -3.84144,-14.63493 -3.44091,-15.03546 0.13854,-0.13853 4.22009,0.80705 9.07012,2.1013 36.56549,9.75759 73.43515,14.80783 97.9692,13.41939 11.86627,-0.67154 22.51333,-2.51313 22.51333,-3.89407 0,-0.37901 -1.95668,-1.46898 -4.34818,-2.42217 -13.25572,-5.2834 -30.18876,-13.91941 -41.60869,-21.22083 -6.41063,-4.09869 -15.84345,-10.93647 -15.52555,-11.25437 0.10106,-0.10106 3.16294,0.63276 6.80419,1.63072 12.5744,3.44626 32.47693,7.22754 48.61713,9.23677 26.71195,3.32526 39.71227,1.82285 104.82253,1.82645 25.53158,10e-4 36.44381,-0.95431 55.49329,-3.37494 39.04553,-4.96155 69.65656,-15.41787 89.76038,-30.22746 1.83991,-1.35538 17.46307,-18.6169 22.42336,-17.2685 0.65863,0.17904 -27.27459,24.97101 -34.01049,30.55158 -30.65529,25.39733 -80.17275,40.51767 -139.51546,45.80447 -5.5077,0.49067 -10.72385,-0.23257 -10.8373,-0.13058 -0.39234,0.3527 1.60452,5.10388 3.43965,10.09143 6.56555,17.84408 18.41467,33.79215 36.55499,52.88256 l 13.09222,13.77793 -18.11828,-2.21965 c -10.71251,-1.31237 -36.99263,-5.80421 -53.88099,-9.32046 -46.48255,-9.67794 -77.0864,-23.70059 -105.0013,-37.62393 -4.0241,-2.00713 -7.43519,-3.53069 -7.58019,-3.38569 -0.39048,0.39048 4.74701,9.2523 9.03482,15.58446 11.61411,17.15147 29.08492,35.27244 47.23556,48.99336 10.46479,7.91084 19.98303,13.99398 32.94079,21.0526 3.76843,2.05281 6.37734,3.69888 5.79758,3.65793 -0.57976,-0.0409 -1.76563,-0.16257 -2.63527,-0.27026 z"
       id="path35247"
       transform="scale(0.26458333)"
       sodipodi:nodetypes="ssssssssssssssssssscsssssssscsssssssss"
       inkscape:label="hari_center_red" />
    <path
       style="display:inline;fill:#ff4b1c;fill-opacity:1;stroke:#000001;stroke-width:0;stroke-linecap:round;stroke-linejoin:round;stroke-miterlimit:4;stroke-dasharray:none;paint-order:markers stroke fill"
       d="m 301.50014,736.60688 c -52.47669,-15.68135 -106.65731,-41.0706 -130.10242,-60.96651 -21.45874,-18.21026 -39.80862,-49.21196 -48.28979,-81.5845 -1.07401,-4.09951 -3.96731,-14.83276 -6.42954,-23.85168 -16.60933,-60.8384 -23.222749,-99.85022 -19.901217,-117.39499 0.659692,-3.48458 2.40496,-13.71471 3.878377,-22.73363 9.20662,-56.35472 21.12469,-94.44884 34.22767,-109.40307 2.79381,-3.18853 4.87585,-6.00114 4.62677,-6.25023 -0.71347,-0.71346 -3.926,1.69508 -6.35951,4.76794 -1.22282,1.54409 -5.96333,7.50324 -10.53447,13.24255 -9.26951,11.63836 -47.560008,77.90339 -54.65351,90.33251 -21.655938,37.94518 -17.227228,55.94046 -23.167703,105.3258 l -1.031074,8.5717 -0.07993,-10.82052 C 43.280561,471.259 57.330636,409.10389 80.273148,363.97722 c 2.984747,-5.87084 5.542445,-10.9258 5.683775,-11.23327 0.141329,-0.30746 -0.545403,-0.55902 -1.526072,-0.55902 -3.59127,0 -15.930646,8.84832 -30.99868,22.22854 -3.408365,3.02659 -6.351963,5.34795 -6.541328,5.15858 -0.593003,-0.593 13.053546,-18.89208 23.146927,-31.03843 48.26662,-58.08393 119.15618,-104.23475 189.40033,-123.30423 16.38395,-4.44782 16.19527,-4.69206 3.67574,4.75799 -35.03437,26.44483 -62.96936,50.30992 -62.06584,53.02337 0.85646,2.57216 3.36035,1.59448 21.8856,-8.54547 44.4688,-24.34038 98.76271,-39.88435 159.43864,-45.64617 14.87961,-1.41298 52.41725,-2.3 63.95788,-1.51134 l 8.0555,0.55049 c 0.25503,6.8693 -3.51461,13.48365 -6.94286,18.59854 -6.6719,9.88786 -14.01665,19.61956 -28.9641,32.81954 -6.22662,5.49868 -10.09168,11.1405 -9.705,11.37948 0.38668,0.23899 2.8222,-0.36345 5.41226,-1.33875 19.14735,-7.21002 41.60101,-23.57598 66.6073,-48.54854 17.14975,-17.12663 25.98178,-27.43032 25.41235,-29.64677 -0.65497,-2.54944 -6.53278,-12.52246 -11.40281,-19.34742 -5.47689,-7.67543 -18.84359,-21.25025 -26.92201,-27.34118 -31.19815,-23.52266 -72.61012,-36.84809 -127.58428,-41.05371 -21.10581,-1.61464 -55.29534,0.14662 -78.35043,2.79066 -5.10051,0.58494 -14.69903,1.88058 -14.83916,1.74045 -0.45692,-0.45692 15.83476,-7.3281 23.08793,-9.62061 22.52546,-7.11963 53.62336,-9.6921 91.6799,-7.58391 17.43946,0.96608 52.67054,4.15536 61.55827,5.57253 27.12821,4.32568 54.23383,16.29008 75.96157,33.52939 7.57821,6.01274 21.25093,19.82121 25.8449,26.10152 l 3.9697,5.42687 4.84487,0.85708 c 26.94694,4.76699 61.66501,20.05833 89.35092,39.35401 25.01206,17.43214 51.61728,43.603 70.67133,69.51756 9.67713,13.16143 27.80973,41.67175 27.80973,43.7259 0,0.23251 -4.94736,-4.37603 -10.99413,-10.24118 C 668.04194,282.98685 633.92448,258.8377 607.84495,251.6107 l -5.05602,-1.40109 -3.83145,6.4521 c -27.69655,46.64053 -82.39041,91.09796 -144.85322,115.67293 -39.17524,15.41286 -86.32276,33.48961 -129.33914,32.33134 l -19.24418,-0.51818 22.69462,-6.54243 c 18.25708,-5.26317 33.69861,-11.30136 45.35605,-17.54281 14.47396,-7.74945 30.41839,-19.80223 37.0328,-29.2868 3.27346,-4.69389 5.42296,-3.72905 12.52902,-7.23118 23.96845,-11.81254 50.63339,-35.29139 71.79581,-60.80463 8.29599,-10.00157 11.39523,-10.70858 10.64762,-11.45619 -0.2222,-0.2222 -4.55514,2.25018 -9.62876,5.49416 -48.87018,31.2468 -111.18578,57.92693 -162.10916,69.40628 -27.97272,6.30572 -46.80291,8.51737 -72.96119,8.56944 -17.19093,0.0342 -44.01875,-1.07678 -40.39249,-1.75737 0.61493,-0.11542 14.01965,-2.84222 19.96393,-3.90496 44.77443,-8.00486 94.19944,-23.49719 133.46187,-46.69569 9.94199,-5.87429 22.96576,-15.29032 22.98264,-15.92739 0.035,-1.32208 -22.4354,-4.56679 -40.1095,-5.79177 -42.40685,-2.93919 -89.59601,3.13536 -127.21178,16.37565 -49.54309,17.43858 -85.65123,41.19207 -99.36381,65.3658 -6.13789,10.8204 -11.57265,24.59743 -15.00266,38.03144 -3.317,12.9914 -4.6552,23.91158 -5.05911,41.28406 -0.52993,22.79327 0.0172,27.91274 7.23541,67.6973 9.64445,53.15748 29.6505,88.21801 42.32904,113.69439 9.66487,19.42067 11.01045,35.43341 32.59288,50.02609 15.41828,10.42488 36.15237,21.44711 56.64774,30.11391 4.09951,1.73354 8.96301,4.39567 10.80779,5.91584 9.21657,7.5948 20.76626,14.94461 35.40484,22.53038 10.69254,5.54091 12.07812,6.61157 6.3356,4.89556 z"
       id="path41130"
       transform="scale(0.26458333)"
       sodipodi:nodetypes="sssssssssssscsssssssssssssccssssssssssssssscsssssscssscsssssssssssssssssssssssss" />
    <path
       style="display:inline;fill:#fe4428;fill-opacity:1;stroke:#000001;stroke-width:0;stroke-linecap:round;stroke-linejoin:round;stroke-miterlimit:4;stroke-dasharray:none;paint-order:markers stroke fill"
       d="m 299.63673,736.0056 c -6.86683,-2.01144 -26.06319,-5.83433 -34.48251,-8.98327 -32.15949,-12.02814 -60.19417,-26.04339 -80.66812,-39.05802 -11.38853,-7.23935 -19.21748,-13.26326 -26.56961,-21.50164 -18.80303,-21.06957 -31.7994,-48.10563 -39.42787,-79.75876 -7.10198,-31.68804 -16.72552,-61.27859 -21.864753,-91.30419 -2.662127,-15.88747 -3.443898,-37.22091 -2.186668,-44.43379 0.321554,-1.84478 2.111018,-10.5843 2.938965,-15.81118 8.051226,-50.82756 18.139866,-79.34934 28.667896,-100.4364 3.32135,-6.65249 5.80999,-10.52583 9.96136,-15.50402 1.9603,-2.35073 3.56418,-4.40514 3.56418,-4.56536 0,-0.67099 -1.16882,-0.19828 -2.90707,1.17573 -3.93262,3.10855 -22.16512,26.88121 -32.31694,42.13681 -8.042703,12.08613 -11.584208,18.10283 -17.110534,29.06923 -10.426907,20.69109 -17.030996,46.70755 -26.262037,76.95894 -7.257367,23.78339 -13.239242,64.51722 -16.682349,90.49122 -0.336228,2.53643 -1.29808,-22.29423 -0.638115,-41.59988 1.208259,-35.34466 7.775126,-79.69116 20.076719,-111.5104 5.907958,-15.28149 7.663556,-21.10049 15.458223,-36.9303 6.224387,-12.6408 7.447019,-12.24643 4.172023,-11.38542 -3.768006,0.99063 -12.173716,7.25172 -23.495355,16.91444 -9.9356,8.47978 -18.623257,16.37027 -18.873459,16.12007 -0.641331,-0.64133 21.565624,-30.49041 29.784785,-40.10687 8.38332,-9.80853 22.188429,-23.19028 27.834707,-28.24013 1.966892,-1.75913 6.042492,-5.46246 9.056892,-8.22963 3.01439,-2.76717 6.77175,-6.16277 8.34967,-7.54579 l 2.86896,-2.51457 52.17555,0.0122 52.17555,0.0123 -4.65853,1.79572 c -38.04367,14.66461 -66.75879,32.97938 -82.47094,52.60072 -3.21519,4.01513 -6.15685,8.99531 -9.8993,16.75934 -6.01782,12.48449 -10.04623,24.80141 -12.85947,39.31801 -2.47359,12.76401 -3.24071,21.70586 -3.26115,38.01361 -0.0235,18.73806 0.62987,24.20196 7.30859,61.11993 11.17539,61.7743 24.71982,105.98875 39.90089,130.25253 9.39554,15.01682 23.1787,27.132 47.20497,41.49246 11.96085,7.14895 28.94486,15.83282 41.28223,21.10743 7.90273,3.37867 14.18645,4.74803 20.422,9.43526 9.61205,7.22534 18.50893,12.66683 33.37179,20.5276 5.96218,3.1533 25.03653,11.00105 24.08899,10.95264 -0.19765,-0.0101 -21.57046,-6.12611 -24.03016,-6.84658 z"
       id="path46582"
       transform="scale(0.26458333)"
       sodipodi:nodetypes="ssssccsssssssssssssssssssscccssssssssssssss" />
    <path
       style="fill:#ff7c18;fill-opacity:1;stroke:#000001;stroke-width:0;stroke-linecap:round;stroke-linejoin:round;stroke-miterlimit:4;stroke-dasharray:none;paint-order:markers stroke fill"
       d="m 279.86202,863.0766 c -25.85455,-6.70458 -48.95715,-20.17961 -71.03396,-42.24202 -14.59919,-14.58967 -26.1593,-31.2044 -35.90644,-48.07745 -1.95375,-3.3821 -3.80136,-6.14926 -4.10578,-6.14926 -0.30443,0 -0.97773,0.51117 -1.49625,1.13593 -2.99503,3.6088 3.69697,25.59892 17.44329,57.31924 2.29619,5.29856 4.077,9.73164 3.95737,9.85128 -0.28276,0.28275 -7.42134,-8.30835 -15.881,-19.11236 C 113.57816,740.11831 78.721246,659.46918 70.073378,578.03052 c -2.992844,-28.18419 -1.915501,-63.75449 2.530273,-83.54118 0.94622,-4.21132 -0.08305,-2.32894 -1.870978,2.09362 -2.404964,5.94883 -17.889488,39.97137 -20.98555,46.77618 l -5.770588,12.68311 5.737082,-53.42534 c 4.218917,-39.28775 14.933748,-72.14739 35.690394,-114.17796 5.472452,-11.08129 13.417446,-26.03211 19.855309,-35.59633 5.37113,-7.97945 32.93349,-40.43233 34.1246,-39.71452 2.53665,1.5287 -11.57326,24.66289 -12.43682,26.66818 -7.90136,18.34788 -21.97196,53.04963 -27.791189,88.78856 -1.468515,9.01892 -3.209873,19.24905 -3.869684,22.73363 -3.562816,18.81588 3.178559,59.1987 20.219673,121.12182 1.80508,6.55921 4.45273,16.31743 5.88366,21.68493 8.45524,31.71608 24.96472,60.71067 45.43463,79.79404 15.70973,14.64564 49.0713,33.02657 87.71796,48.32918 12.95242,5.12866 51.17126,15.57125 64.01119,19.03446 10.44904,2.81833 5.9035,4.36313 -7.59468,5.85784 -23.83616,2.63948 -68.67069,-1.83822 -107.80579,-12.82768 l -8.85022,-2.48521 c 1.93834,10.96453 4.34855,20.49049 8.1198,30.87821 3.95248,10.71506 15.30152,28.53314 21.21676,37.52805 16.71349,25.41511 43.47385,48.47451 69.43043,63.50149 8.36635,4.84351 -2.40959,2.14112 -13.20762,-0.659 z"
       id="path57923"
       transform="scale(0.26458333)"
       sodipodi:nodetypes="sssssssssssscssssssssssssssccsss"
       inkscape:label="hair_r_orange" />
    <path
       style="display:inline;fill:#e8cca7;fill-opacity:1;stroke:#000001;stroke-width:0;stroke-linecap:round;stroke-linejoin:round;stroke-miterlimit:4;stroke-dasharray:none;paint-order:markers stroke fill"
       d="m 279.97773,392.21534 c -5.95871,-0.75944 -21.1756,-4.47893 -20.80508,-4.79262 0.16915,-0.1432 9.24362,-2.76659 11.73874,-3.32452 13.62989,-4.63872 26.87045,-6.70589 37.04777,-15.90049 l 1.12385,-1.22583 c 18.26347,-19.92068 65.80564,-8.83217 95.06465,-16.55242 2.75471,-0.72686 8.7511,-2.3636 8.82962,-2.28508 0.0785,0.0785 -2.59457,3.76315 -4.18222,5.54761 -10.34036,11.62211 -28.43577,23.82758 -48.22474,32.52789 -4.11693,1.81003 -5.03814,4.34444 -12.01901,5.26325 -14.71806,1.93716 -26.82453,2.49092 -39.69069,2.38308 -9.09591,-1.20421 -20.05749,-0.7004 -28.88289,-1.64087 z"
       id="path62497"
       transform="scale(0.26458333)"
       sodipodi:nodetypes="csccsssssscc"
       inkscape:label="face_shadow1" />
    <path
       style="display:inline;fill:#e8cca7;fill-opacity:1;stroke:#000001;stroke-width:0;stroke-linecap:round;stroke-linejoin:round;stroke-miterlimit:4;stroke-dasharray:none;paint-order:markers stroke fill"
       d="m 367.57305,426.76074 c 9.58751,-5.76853 18.92463,-25.62186 27.27862,-26.52611 5.75103,-0.62248 26.10386,-2.55455 34.31077,-4.05824 53.25246,-9.7571 98.98389,-27.23097 131.53838,-50.26051 l 3.91317,-2.76824 1.86341,0.72853 c 3.33784,1.30498 10.20609,4.31325 14.29572,7.25842 l 5.58427,4.02155 c -31.49945,29.61338 -82.82638,51.55221 -121.3428,62.28893 -34.59758,8.06885 -73.77014,15.78323 -106.77354,16.14853 z"
       id="path62536"
       transform="scale(0.26458333)"
       sodipodi:nodetypes="ccsscsscccc"
       inkscape:label="face_shadow2" />
    <path
       style="display:inline;fill:#ed2825;fill-opacity:1;stroke:#000001;stroke-width:0;stroke-linecap:round;stroke-linejoin:round;stroke-miterlimit:4;stroke-dasharray:none;paint-order:markers stroke fill"
       d="m 279.58234,367.67717 c -21.68494,-0.95184 -41.14309,-5.25657 -52.29656,-10.95136 l -6.67068,-3.40594 6.48974,0.10084 c 19.94986,0.31001 33.16667,0.82537 51.39293,-0.32308 52.86435,-3.33103 110.31227,-20.30933 170.27835,-50.9004 16.89663,-8.61964 32.51844,-17.99614 46.14525,-26.7093 2.81841,-1.80213 12.51082,-6.45862 12.51082,-6.33312 0,0.33042 -13.53676,16.05309 -17.34659,20.41946 -19.00646,21.7829 -41.65612,40.37373 -64.18293,52.68133 -8.71307,4.76041 -11.5361,5.82201 -23.39619,8.7981 -47.25351,11.85745 -90.09915,18.0643 -122.92414,16.62347 z"
       id="path65067"
       transform="scale(0.26458333)"
       sodipodi:nodetypes="sscsssssssss"
       inkscape:label="hair_front_orange" />
    <path
       style="display:inline;fill:#df202b;fill-opacity:1;stroke:#000001;stroke-width:0;stroke-linecap:round;stroke-linejoin:round;stroke-miterlimit:4;stroke-dasharray:none;paint-order:markers stroke fill"
       d="m 284.77122,715.01136 c -21.99778,-4.60818 -35.28538,-10.22726 -57.58206,-20.84169 -20.20247,-9.61748 -39.4605,-22.72126 -52.59379,-33.72428 -13.50836,-11.31727 -22.97742,-24.45115 -31.71583,-45.79354 -9.63363,-23.52885 -20.01064,-62.11489 -26.55992,-98.76086 -1.28215,-7.17414 -3.49386,-24.58996 -4.2977,-28.68947 -6.4702,-32.99725 -4.36281,-56.42497 1.43318,-83.31475 3.49713,-16.22448 12.37616,-37.30976 19.68395,-48.73367 3.376,-5.27754 15.41962,-18.25798 22.70958,-24.22232 23.04952,-18.85814 62.11642,-33.78149 99.26356,-43.08965 44.13244,-11.0585 86.32343,-13.19987 134.99261,-3.13475 l 9.13426,1.88903 -9.57131,7.97417 c -3.69907,3.08182 -10.55672,7.49729 -16.35316,9.47105 l -9.11394,4.02969 -11.27032,-1.50341 c -7.82002,-1.04315 -31.30863,-0.29936 -42.85849,0.91216 -27.23735,2.85704 -57.0203,10.32 -84.59893,21.19866 -14.7183,5.80577 -36.70614,16.55719 -43.7486,21.3918 -15.08519,10.3559 -30.13248,29.3909 -38.17619,48.29333 -4.10948,9.65715 -8.34448,38.35045 -9.89378,67.03312 -1.34392,24.88037 0.8734,50.3623 5.81031,66.77361 0.99006,3.29115 2.48948,9.50576 3.33205,13.81024 6.48853,33.1483 19.48505,67.33146 36.02871,94.76192 6.28655,10.42351 11.19918,15.66114 25.13333,26.79603 23.22311,18.55778 103.01665,42.88997 134.18669,52.04716 10.17381,2.98888 -41.24247,-2.03218 -53.37421,-4.57358 z"
       id="path71886"
       transform="scale(0.26458333)"
       sodipodi:nodetypes="ssssssssssscsscssssssssssss"
       inkscape:label="hair_r_aroundFace" />
    <path
       style="display:inline;fill:#79243c;fill-opacity:1;stroke:#000001;stroke-width:0;stroke-linecap:round;stroke-linejoin:round;stroke-miterlimit:4;stroke-dasharray:none;paint-order:markers stroke fill"
       d="m 325.60334,634.58986 c -17.09581,-6.50475 -29.76725,-16.79871 -39.96881,-34.50291 -2.82071,-4.89517 -6.92402,-15.02869 -8.73003,-18.70818 l -3.74964,-7.63933 10.11244,3.72744 c 4.07402,1.50168 16.37746,6.05944 23.48873,7.85896 49.36906,12.49292 103.36239,8.89268 164.24467,-10.78925 4.52924,-1.46421 17.4949,-3.80649 17.63986,-3.66153 0.51022,0.51022 -33.10935,31.84191 -41.78866,36.53898 l -5.65272,4.54682 -9.71517,-3.11582 c -22.0692,-7.07796 -44.24195,-8.87336 -60.70137,-4.69945 -15.17711,3.84873 -24.65328,11.73459 -31.42848,25.28947 -1.35638,2.71366 -1.90672,7.54644 -2.76138,7.52933 -0.67925,-0.0136 -7.40293,-1.0099 -10.98944,-2.37453 z"
       id="path88886"
       transform="scale(0.26458333)"
       sodipodi:nodetypes="ssscssssscsssss"
       inkscape:label="mouth_dark_fill" />
    <path
       style="fill:#f40044;fill-opacity:1;stroke:#000001;stroke-width:0;stroke-linecap:round;stroke-linejoin:round;stroke-miterlimit:4;stroke-dasharray:none;paint-order:markers stroke fill"
       d="m 340.66125,638.46865 c -4.35551,-0.87937 -4.10971,-0.48245 -3.87521,-2.6514 0.48644,-4.4993 6.93491,-15.03486 12.08877,-20.18872 15.44045,-15.44045 42.61152,-17.40133 82.32152,-8.08974 4.50104,1.05545 9.40767,3.70448 9.60152,4.01814 1.03797,1.67947 -27.60342,16.76396 -40.70846,21.31408 -14.60011,5.0692 -26.03789,6.58112 -41.46555,6.82844 -8.72737,0.13991 -15.13209,-0.65933 -17.96259,-1.2308 z"
       id="path97113"
       transform="scale(0.26458333)"
       sodipodi:nodetypes="ssssssss"
       inkscape:label="mouth_red"
       sodipodi:insensitive="true" />
    <path
       style="display:inline;fill:#fbeed9;fill-opacity:1;stroke:#000001;stroke-width:0;stroke-linecap:round;stroke-linejoin:round;stroke-miterlimit:4;stroke-dasharray:none;paint-order:markers stroke fill"
       d="m 250.1548,694.55509 c -23.19669,-11.50068 -44.44248,-23.00858 -59.98544,-37.88484 -5.84188,-5.59131 -10.59548,-14.37699 -17.88848,-27.5575 -18.02966,-32.17626 -24.61212,-61.5858 -33.52014,-93.1973 -4.83832,-17.01382 -6.07177,-34.68363 -6.41913,-57.0073 -0.30757,-19.76635 1.22988,-40.29646 5.46118,-63.97232 1.70317,-9.52994 7.17324,-19.48284 9.58374,-24.84743 7.11417,-15.83261 13.96154,-24.71403 25.7415,-35.02075 9.12263,-7.98172 16.96216,-11.73623 38.47752,-21.53562 12.77402,-5.81805 48.3865,-16.96691 49.00564,-16.30297 0.10393,0.11146 -16.56017,11.16815 -19.16175,13.12973 -6.0194,4.53861 -16.15612,14.43758 -22.19094,21.39362 -6.50764,7.50106 -15.28346,20.50925 -19.73188,28.47938 -17.71655,27.39619 -21.48205,54.77111 -22.99485,81.6974 -1.13368,21.14932 -0.18795,35.74953 2.74889,49.24774 1.69813,7.80489 10.89674,35.94808 20.37125,61.49102 21.01564,56.65741 40.66925,95.61611 57.30766,119.4811 1.60635,2.30403 4.80498,7.45583 4.45694,7.42479 -0.34803,-0.031 -7.84092,-3.32275 -11.26171,-5.01875 z"
       id="path106466"
       transform="scale(0.26458333)"
       sodipodi:nodetypes="ssccssssssssccsssss"
       sodipodi:insensitive="true"
       inkscape:label="face_r_highlight" />
    <path
       style="display:inline;fill:#e2c5a6;fill-opacity:1;stroke:#000001;stroke-width:0;stroke-linecap:round;stroke-linejoin:round;stroke-miterlimit:4;stroke-dasharray:none;paint-order:markers stroke fill"
       d="m 324.41134,717.63851 23.68692,-7.14418 c 15.2714,-4.60599 42.5983,-13.09335 58.21785,-21.61208 34.01253,-21.38781 57.46415,-32.74484 82.31459,-60.24696 8.51476,-11.89 23.23346,-32.63654 28.4514,-47.28992 -0.99109,-10.05435 -7.70213,-30.45641 -9.5578,-40.42058 0.0497,-1.42167 0.44901,3.09497 20.58248,17.91204 14.1161,2.91621 14.58319,2.67421 25.69985,1.27309 11.55337,-7.35728 16.87231,-10.98248 21.73784,-18.58292 11.66685,-27.72621 11.68937,-35.93146 10.75479,-62.67038 0.38752,-14.17294 -11.50067,-28.61326 -9.13676,-41.33776 11.49643,-19.9833 51.41237,-19.62461 54.94072,-19.05359 1.40272,0.7041 3.95956,5.22007 4.30137,9.07614 5.23384,6.84233 3.72422,29.0122 3.71582,36.15874 -0.0568,8.25947 -1.0698,24.35144 -1.65339,28.49558 -3.53935,26.97954 -9.83757,58.71366 -19.31178,80.48688 -9.5336,44.1668 -37.63255,77.79558 -66.7896,104.95861 -21.53216,19.3597 -57.0948,35.60954 -82.27352,38.89058 -23.00801,3.25117 -51.28472,7.44078 -72.40394,6.32526 -23.73063,-1.59702 -63.93388,0.50282 -73.27684,-5.21855 z"
       id="path111382"
       transform="scale(0.26458333)"
       sodipodi:nodetypes="cscccccccccccccccccc"
       inkscape:label="face_l_shadow"
       sodipodi:insensitive="true" />
    <path
       style="display:inline;fill:#f4ddb9;fill-opacity:1;stroke:#000001;stroke-width:0;stroke-linecap:round;stroke-linejoin:round;stroke-miterlimit:4;stroke-dasharray:none;paint-order:markers stroke fill"
       d="m 631.57142,419.22548 c -19.51463,-1.95178 -25.30389,3.41666 -41.5866,16.57486 -6.54493,7.31024 -6.85613,12.72026 -12.08629,11.53433 -8.08319,-1.83286 -19.58228,-17.66692 -26.30342,-21.29886 -16.34127,-4.38984 -22.52882,-3.02077 -32.04818,5.87349 -22.54038,20.60528 -27.17445,67.53323 -12.61576,102.16987 35.13267,63.21239 -17.77034,99.49158 -60.47214,133.51036 -14.96804,11.65968 -22.6477,14.58348 -29.9803,19.00941 -32.91678,16.5 -62.88238,23.10556 -92.06739,31.03957 l -8.99402,-1.71013 c -16.24623,-3.08905 -32.63404,-7.81076 -47.33941,-13.63957 l -7.54252,-2.98965 -4.32427,-6.27975 C 240.563,670.29486 224.12495,636.20134 205.6185,588.08701 c -9.87671,-25.67817 -24.26642,-67.05537 -26.27074,-75.5408 -6.20954,-26.28853 -4.35301,-68.13101 4.33997,-97.81465 1.25385,-4.28145 8.7768,-23.28476 11.68272,-29.51103 4.19127,-8.98029 14.04653,-23.62228 22.50544,-33.4364 9.23809,-10.71813 22.98021,-24.01797 31.99792,-29.77673 4.61522,-2.94731 13.09214,-5.9697 29.48587,-9.57252 24.63467,-5.41393 45.77801,-9.07983 71.2986,-5.99944 l 13.54237,1.6346 -15.14384,7.60846 c -32.23207,16.19382 -70.00671,26.34861 -105.52196,33.24758 -3.72269,1.67543 -21.4577,3.04284 -22.91975,4.39379 0.71271,0.26029 13.06492,6.24588 22.46372,8.62845 13.47457,3.41576 25.90612,5.68707 43.86079,5.86644 6.86504,0.0658 15.21388,-0.29379 22.06772,-0.66522 l -2.13868,2.07224 c -2.0036,1.94136 -8.61301,5.6837 -14.53014,8.33449 -7.47599,3.34914 -14.70911,5.68238 -23.46882,7.57049 -4.41895,0.95248 -6.91647,1.73562 -6.93177,2.17358 -0.0509,1.45672 13.14136,3.92459 27.48843,5.14226 15.02282,1.27502 31.55575,0.97301 50.58308,-0.92401 4.45847,-0.44451 8.20935,-0.69771 8.33528,-0.56265 0.67051,0.71903 -25.33071,8.84029 -35.84312,11.1953 -2.96389,0.66397 -5.43572,1.44284 -5.49295,1.73081 -0.20709,1.04192 6.69505,0.15089 19.5103,0.45566 20.97023,0.4987 31.44202,-1.18715 53.8506,-3.19497 5.9179,-0.53025 13.65783,-1.14273 13.82434,-0.96417 0.35733,0.38319 -5.12181,7.23729 -9.30749,12.05878 -4.83004,5.56371 -13.28449,12.76546 -19.25956,16.40584 -3.0677,1.86903 -5.68304,3.47172 -5.81186,3.56154 -0.12883,0.0898 -0.008,0.40586 0.26841,0.70232 0.90109,0.9663 22.88127,-0.81522 41.45177,-3.3597 72.42683,-9.92377 135.37746,-34.26102 176.77956,-68.34449 3.75419,-3.09056 7.12466,-5.82326 7.48994,-6.07266 0.84175,-0.57473 7.83686,4.55634 15.02644,11.02225 21.86139,16.42123 51.07665,105.5333 30.74033,53.07303 z M 373.40421,638.58263 c 14.02532,-1.96033 26.52576,-5.62007 40.49442,-11.85549 12.1111,-5.40623 26.07209,-13.63575 33.65362,-19.83763 17.25009,-14.11104 40.42459,-35.34223 39.16195,-35.87802 -0.43078,-0.1828 -4.19103,0.861 -8.35611,2.31954 -65.36672,22.89031 -131.48581,26.28167 -182.89999,9.38125 -5.15908,-1.69585 -14.75712,-5.64268 -19.62653,-8.07068 -1.07486,-0.53595 -0.78875,0.83378 1.43532,6.87161 7.48694,20.32528 22.30386,38.13066 39.51963,47.49045 2.27495,1.23683 5.69159,2.92864 7.59253,3.75958 4.14926,1.81373 14.55883,4.86612 19.55791,5.73495 5.65689,0.98315 22.68822,1.03196 29.46725,0.0844 z M 239.67324,538.13716 c 5.46,-0.95924 9.62927,-3.23699 14.96326,-8.17473 8.70225,-8.05576 14.63562,-20.27473 17.02285,-35.05624 1.16556,-7.21704 1.15728,-22.75675 -0.0155,-29.11638 -2.6678,-14.46646 -8.05835,-25.83672 -16.03731,-33.82741 -10.5097,-8.8852 -20.699,-11.58849 -30.87547,-7.00318 -12.46916,5.64559 -21.77047,19.85406 -25.67667,39.22311 -1.17187,5.81074 -1.76292,19.31596 -1.10645,25.28158 3.05158,27.73082 17.90063,47.99547 36.0283,49.16819 1.15761,0.0749 3.72126,-0.14784 5.69701,-0.49494 z"
       id="path114465"
       transform="scale(0.26458333)"
       sodipodi:nodetypes="ccsccccccsscssssssssscsccsccsssssssssssssssssssccsssssssssssssssssccsssss"
       inkscape:label="face_base" />
    <path
       style="display:inline;fill:#faeecd;fill-opacity:1;stroke:#000001;stroke-width:0;stroke-linecap:round;stroke-linejoin:round;stroke-miterlimit:4;stroke-dasharray:none;paint-order:markers stroke fill"
       d="m 63.806135,122.17755 c -0.80787,-0.40309 -1.701246,-1.85185 -1.906171,-3.09118 -0.514062,-3.10894 2.075745,-5.91387 4.200572,-4.54947 2.360883,1.51597 2.148482,6.53137 -0.322121,7.60615 -1.042701,0.45361 -1.129255,0.45513 -1.97228,0.0345 z"
       id="path79760"
       inkscape:label="eye_r_highlight" />
    <path
       style="display:inline;fill:#faeecd;fill-opacity:1;stroke:#000001;stroke-width:0;stroke-linecap:round;stroke-linejoin:round;stroke-miterlimit:4;stroke-dasharray:none;paint-order:markers stroke fill"
       d="m 146.25189,124.31792 c -1.21356,-0.63069 -2.18565,-2.55202 -2.20603,-4.36022 -0.0426,-3.77309 2.81183,-6.10759 5.10927,-4.17873 1.75392,1.47252 2.20927,4.69493 0.97087,6.87064 -1.05477,1.85309 -2.40212,2.43331 -3.87411,1.66831 z"
       id="path79721"
       inkscape:label="eye_l_highlight" />
    <path
       style="display:inline;fill:#7c253e;fill-opacity:1;stroke:#000001;stroke-width:0;stroke-linecap:round;stroke-linejoin:round;stroke-miterlimit:4;stroke-dasharray:none;paint-order:markers stroke fill"
       d="m 60.947473,142.64988 c -3.85176,-0.78209 -7.123607,-5.03381 -8.374651,-10.88272 -0.454194,-2.12347 -0.509633,-7.16012 -0.100171,-9.10097 1.058847,-5.01896 3.472417,-8.91331 6.562657,-10.58899 1.203794,-0.65275 1.464612,-0.71266 3.09362,-0.7107 2.372881,0.003 3.660757,0.63097 5.640551,2.75091 4.824073,5.16558 5.822405,15.38711 2.20638,22.59028 -2.177826,4.33824 -5.655396,6.62707 -9.028382,5.94219 z m 5.097254,-20.70879 c 2.000541,-1.21979 2.269953,-5.05704 0.486674,-6.93166 -0.66067,-0.6945 -0.911302,-0.81962 -1.641976,-0.81962 -3.093962,0 -4.054752,6.0318 -1.234683,7.75128 0.850745,0.51873 1.539239,0.51873 2.389985,0 z"
       id="path77578"
       inkscape:label="eye_r_base" />
    <path
       style="display:inline;fill:#7c253e;fill-opacity:1;stroke:#000001;stroke-width:0;stroke-linecap:round;stroke-linejoin:round;stroke-miterlimit:4;stroke-dasharray:none;paint-order:markers stroke fill"
       d="m 534.83315,560.07292 c -6.11359,-1.19842 -11.29415,-4.3434 -17.57624,-10.67006 -8.6253,-8.68649 -14.70881,-20.9873 -17.84855,-36.08961 -7.68013,-36.94184 5.4158,-77.29548 28.68274,-88.38265 8.78386,-3.71086 18.55344,-2.93725 25.14975,0.57544 22.09156,11.80434 34.63374,49.75731 28.07174,84.94582 -5.09932,27.34495 -19.19816,46.41235 -36.73885,49.68597 -4.53206,0.84582 -5.11442,0.84193 -9.74059,-0.0649 z m 26.74761,-90.46623 c 3.15393,-1.63097 5.83998,-5.22318 7.11435,-9.51447 3.20548,-10.79402 -0.9591,-22.01588 -9.07251,-24.44671 -2.83088,-0.84815 -3.42828,-0.77244 -6.69834,0.84894 -10.81493,5.36231 -11.24681,26.34738 -0.67491,32.79407 2.76034,1.68323 6.44848,1.80899 9.33141,0.31817 z"
       id="path77539"
       transform="scale(0.26458333)"
       sodipodi:nodetypes="sssccssssssssss"
       inkscape:label="eye_l_base" />
  </g>
  <g
     inkscape:groupmode="layer"
     id="layer4"
     inkscape:label="手"
     style="display:inline">
    <path
       style="display:inline;fill:#7a243a;fill-opacity:1;stroke:#000001;stroke-width:0;stroke-linecap:round;stroke-linejoin:round;stroke-miterlimit:4;stroke-dasharray:none;paint-order:markers stroke fill"
       d="m 711.99931,721.41493 c -10.84562,-3.62991 -28.0916,-16.59816 -43.93073,-33.53677 -5.45087,-5.82925 -10.63107,-10.69085 -10.84844,-10.97779 -0.21737,-0.28694 -2.99979,3.21838 -4.23443,4.73051 -1.23464,1.51213 -6.4417,7.37238 -10.14868,11.90592 -6.44033,7.87636 -17.96655,16.62207 -18.90895,15.70501 -0.24559,-0.23898 5.44281,-9.57558 8.51699,-15.91965 27.57613,-56.90784 44.10593,-109.71816 56.53868,-179.61778 2.45891,-13.8245 5.09314,-28.36866 5.28147,-28.5622 0.18834,-0.19354 2.05405,6.02641 3.17648,9.94574 1.57975,5.51625 3.17969,15.95632 2.59463,30.22441 l -0.51127,12.46849 11.22885,18.0057 c 21.58689,34.61503 36.79991,68.67438 42.91267,95.6731 5.25619,23.21543 0.40974,49.72389 -10.7695,62.8119 -6.60607,7.73401 -19.56332,10.93692 -30.89777,7.14341 z"
       id="path4054"
       sodipodi:nodetypes="ssssssssssscssss"
       transform="scale(0.26458333)"
       inkscape:label="hand_l" />
    <path
       style="display:inline;fill:#7a243a;fill-opacity:1;stroke:#000001;stroke-width:0;stroke-linecap:round;stroke-linejoin:round;stroke-miterlimit:4;stroke-dasharray:none;paint-order:markers stroke fill"
       d="M 52.855716,748.22004 C 47.619343,745.92691 42.554676,739.43525 39.726551,734.07347 32.218129,719.83845 30.812258,689.62123 36.73836,665.66871 41.321073,647.146 58.805704,610.16926 70.032398,595.94243 l 6.223045,-7.88604 -1.102597,-8.93408 c -2.428819,-19.68013 0.396821,-32.80688 2.487754,-38.26105 1.039198,-2.71073 1.226053,3.64481 3.927906,14.76554 16.666963,68.60062 38.642754,126.38745 61.853064,162.2619 3.26601,5.04803 9.31206,13.37333 9.06861,13.62351 -0.24345,0.25019 -5.96162,-2.33719 -8.30756,-3.49397 -6.33232,-3.12248 -16.42191,-10.49475 -21.45563,-19.86505 l -2.88462,-5.36972 -2.17784,4.26274 c -5.9681,11.68148 -20.519268,26.69821 -35.674211,37.1673 -7.415695,5.12279 -8.814359,5.83309 -16.12781,5.91036 -5.023292,0.0531 -10.170026,-0.66153 -13.006793,-1.90383 z m -11.11488,-35.41865 c -27.827224,273.14552 -13.913612,136.57276 0,0 z"
       id="path4093"
       sodipodi:nodetypes="sssscssssssscsssscc"
       transform="scale(0.26458333)"
       inkscape:label="hand_r" />
    <path
       style="display:inline;fill:#974b60;fill-opacity:1;stroke:#000001;stroke-width:0;stroke-linecap:round;stroke-linejoin:round;stroke-miterlimit:4;stroke-dasharray:none;paint-order:markers stroke fill"
       d="m 10.835865,182.00583 c 0.313141,-2.31149 0.716285,-3.52537 1.548373,-5.72711 1.692167,-4.47754 6.779502,-15.002 7.874902,-16.29127 0.216551,-0.25486 0.251779,-0.13775 0.354989,1.18034 0.12,1.53253 -0.125362,9.28166 -0.40605,12.82403 -0.281115,3.54776 -1.102295,10.26004 -1.667199,13.62757 -0.652776,3.8914 -1.251974,5.19255 -2.699119,5.86115 -6.3610909,0.006 -5.240556,-7.61923 -5.005896,-11.47471 z"
       id="path5565"
       sodipodi:nodetypes="cssssscc"
       inkscape:label="hand_r_highlight" />
  </g>
  <g
     inkscape:groupmode="layer"
     id="layer5"
     inkscape:label="目の周り"
     style="display:inline">
    <path
       style="fill:#d9b697;fill-opacity:1;stroke:#000001;stroke-width:0;stroke-linecap:round;stroke-linejoin:round;stroke-miterlimit:4;stroke-dasharray:none;paint-order:markers stroke fill"
       d="m 134.12055,113.36935 c 2.92719,-2.25242 4.49312,-3.05763 7.67444,-3.04309 1.82227,0.64281 2.04287,0.38789 3.72617,1.92938 -1.26609,-0.53943 -2.00496,-0.68437 -3.26703,-0.4635 -2.32302,0.40655 -2.75279,0.36787 -4.22737,1.67892 -2.58117,2.29492 -4.04478,4.44998 -5.67954,9.87094 -0.78485,3.11159 -1.02278,5.37895 -0.79859,9.275 -2.36816,-7.88993 -1.25647,-14.84644 2.57192,-19.24765 z"
       id="path143582"
       sodipodi:nodetypes="cccssccc"
       inkscape:label="eye_l_shadow_above" />
    <path
       style="fill:#d9b697;fill-opacity:1;stroke:#000001;stroke-width:0;stroke-linecap:round;stroke-linejoin:round;stroke-miterlimit:4;stroke-dasharray:none;paint-order:markers stroke fill"
       d="m 194.252,470.63383 c -0.42672,-14.61599 3.46806,-27.18839 6.31862,-33.09844 0.92433,-1.9164 4.46765,-6.34722 7.51425,-9.40619 7.87032,-7.90228 16.69878,-9.18623 23.16495,-9.18623 5.34789,0.69412 9.50146,-1.01406 12.15445,3.27845 -6.24876,-3.3721 -11.03211,0.29058 -16.14863,1.8319 -5.97458,1.84305 -10.9769,5.04728 -16.97236,13.06179 -4.71159,6.29827 -7.76196,12.93047 -10.06106,22.10781 -1.98936,6.12235 -2.36634,25.67128 -3.00953,32.13067 -0.0985,0.11553 -2.8621,-17.34309 -2.96069,-20.71976 z"
       id="path148266"
       transform="scale(0.26458333)"
       sodipodi:nodetypes="ssscccsccs"
       inkscape:label="eye_r_shadow_above" />
    <path
       style="display:inline;fill:#f4e5e1;fill-opacity:1;stroke:#000000;stroke-width:0;stroke-linecap:butt;stroke-linejoin:miter;stroke-miterlimit:4;stroke-dasharray:none;stroke-opacity:1"
       d="m 139.72825,147.85891 c 0,0 6.69356,3.13761 11.92291,-6.48439 0,0 5.52167,-11.80183 -0.40638,-23.82541 0,0 -0.94523,-1.77385 -2.64617,-2.93246 0,0 6.24997,2.32288 6.77291,11.73571 0,0 0.81175,11.4662 -2.22128,16.45151 0,0 -4.59532,6.33466 -8.0467,6.47411 0,0 -3.42299,1.05615 -5.37529,-1.41907 z"
       id="path157360"
       sodipodi:nodetypes="cccccccc"
       inkscape:label="path157360" />
  </g>
  <g
     inkscape:groupmode="layer"
     id="layer6"
     inkscape:label="outline"
     style="display:inline">
    <path
       style="fill:none;stroke:#000000;stroke-width:0.264583;stroke-linecap:butt;stroke-linejoin:miter;stroke-miterlimit:4;stroke-dasharray:2.11666, 2.11666;stroke-dashoffset:0;stroke-opacity:1"
       d="m 6.135771,95.07734 c 0,0 14.551718,-65.073994 82.83291,-73.350356 32.244519,-3.908359 55.779729,17.570617 55.779729,17.570617 0,0 52.43296,15.339428 58.56874,62.473309 0,0 11.43484,75.02375 -6.97247,102.07692 0,0 -2.06349,4.49607 -9.76146,0 -6.29175,-3.67475 -18.68621,17.29172 -17.84951,21.7541 0.83669,4.46238 2.23118,34.30454 -35.69904,29.00546"
       id="path162644"
       sodipodi:nodetypes="cscccssc" />
    <path
       style="fill:none;stroke:#000000;stroke-width:0.264583;stroke-linecap:butt;stroke-linejoin:miter;stroke-miterlimit:4;stroke-dasharray:2.11666, 2.11666;stroke-dashoffset:0;stroke-opacity:1"
       d="m 133.03467,254.60739 c 0,0 -6.20549,-1.3945 -7.73943,-3.83486 -3.53282,-5.62041 -5.3875,-10.22328 -8.43669,-13.52659 -1.67339,-1.81284 -11.11305,-2.7642 -15.36951,-0.65229 -3.477173,3.11659 -16.302906,19.78574 -27.143217,20.26886 -15.064136,0.96794 -29.861482,-21.08078 -29.861482,-21.08078 0,0 -16.118362,-30.29554 -19.465147,-30.01664 C 21.67241,206.04398 9.4685401,213.50537 6.8330179,203.01113 5.7691552,198.775 2.5090008,176.42599 6.7600384,166.30332 7.8487322,163.71089 2.4699636,147.34453 2.059519,130.60115 1.6283951,113.01419 6.135771,95.07734 6.135771,95.07734"
       id="path163369"
       sodipodi:nodetypes="csscccssssc" />
    <ellipse
       style="fill:none;fill-opacity:1;stroke:#000001;stroke-width:0.3;stroke-linecap:round;stroke-linejoin:round;stroke-miterlimit:4;stroke-dasharray:2.4, 2.4;stroke-dashoffset:0;paint-order:markers stroke fill"
       id="path164414"
       cx="142.73157"
       cy="131.29332"
       rx="3.6977091"
       ry="6.6558766" />
    <ellipse
       style="display:inline;fill:none;fill-opacity:1;stroke:#000001;stroke-width:0.3;stroke-linecap:round;stroke-linejoin:round;stroke-miterlimit:4;stroke-dasharray:2.4, 2.4;stroke-dashoffset:0;paint-order:markers stroke fill"
       id="path164414-3"
       cx="61.357716"
       cy="129.45688"
       rx="3.6977091"
       ry="6.6558766" />
    <rect
       style="fill:none;fill-opacity:1;stroke:#000001;stroke-width:0.264583;stroke-linecap:round;stroke-linejoin:round;stroke-miterlimit:4;stroke-dasharray:2.11666, 2.11666;stroke-dashoffset:0;paint-order:markers stroke fill"
       id="rect164783"
       width="2.9284363"
       height="15.060529"
       x="198.7153"
       y="125.47729"
       ry="1.4642181" />
    <rect
       style="display:inline;fill:none;fill-opacity:1;stroke:#000001;stroke-width:0.264583;stroke-linecap:round;stroke-linejoin:round;stroke-miterlimit:4;stroke-dasharray:2.11666, 2.11666;stroke-dashoffset:0;paint-order:markers stroke fill"
       id="rect164783-8"
       width="2.9284363"
       height="15.060529"
       x="6.5998693"
       y="122.29319"
       ry="1.4642181" />
  </g>
</svg>
